name D:\school\WTK\thesis\model\3dpredictsim\Results\Batchsim_tmt_linear\Pog_s1_tmt_bCst_d05_k800_ig24_pas.mot
datacolumns 128
datarows 4
range 1.10592893 1.13910680
endheader
time	pelvis_tilt	pelvis_list	pelvis_rotation	pelvis_tx	pelvis_ty	pelvis_tz	hip_flexion_l	hip_adduction_l	hip_rotation_l	hip_flexion_r	hip_adduction_r	hip_rotation_r	knee_angle_l	knee_angle_r	ankle_angle_l	ankle_angle_r	subtalar_angle_l	subtalar_angle_r	tmt_angle_l	tmt_angle_r	mtp_angle_l	mtp_angle_r	lumbar_extension	lumbar_bending	lumbar_rotation	arm_flex_l	arm_add_l	arm_rot_l	arm_flex_r	arm_add_r	arm_rot_r	elbow_flex_l	elbow_flex_r	pro_sup_l	pro_sup_r	glut_med1_l/activation	glut_med2_l/activation	glut_med3_l/activation	glut_min1_l/activation	glut_min2_l/activation	glut_min3_l/activation	semimem_l/activation	semiten_l/activation	bifemlh_l/activation	bifemsh_l/activation	sar_l/activation	add_long_l/activation	add_brev_l/activation	add_mag1_l/activation	add_mag2_l/activation	add_mag3_l/activation	tfl_l/activation	pect_l/activation	grac_l/activation	glut_max1_l/activation	glut_max2_l/activation	glut_max3_l/activation	iliacus_l/activation	psoas_l/activation	quad_fem_l/activation	gem_l/activation	peri_l/activation	rect_fem_l/activation	vas_med_l/activation	vas_int_l/activation	vas_lat_l/activation	med_gas_l/activation	lat_gas_l/activation	soleus_l/activation	tib_post_l/activation	flex_dig_l/activation	flex_hal_l/activation	tib_ant_l/activation	per_brev_l/activation	per_long_l/activation	per_tert_l/activation	ext_dig_l/activation	ext_hal_l/activation	ercspn_l/activation	intobl_l/activation	extobl_l/activation	glut_med1_r/activation	glut_med2_r/activation	glut_med3_r/activation	glut_min1_r/activation	glut_min2_r/activation	glut_min3_r/activation	semimem_r/activation	semiten_r/activation	bifemlh_r/activation	bifemsh_r/activation	sar_r/activation	add_long_r/activation	add_brev_r/activation	add_mag1_r/activation	add_mag2_r/activation	add_mag3_r/activation	tfl_r/activation	pect_r/activation	grac_r/activation	glut_max1_r/activation	glut_max2_r/activation	glut_max3_r/activation	iliacus_r/activation	psoas_r/activation	quad_fem_r/activation	gem_r/activation	peri_r/activation	rect_fem_r/activation	vas_med_r/activation	vas_int_r/activation	vas_lat_r/activation	med_gas_r/activation	lat_gas_r/activation	soleus_r/activation	tib_post_r/activation	flex_dig_r/activation	flex_hal_r/activation	tib_ant_r/activation	per_brev_r/activation	per_long_r/activation	per_tert_r/activation	ext_dig_r/activation	ext_hal_r/activation	ercspn_r/activation	intobl_r/activation	extobl_r/activation	
          1.10592893	         -2.92865796	         -2.42674743	          5.93016259	          1.38241117	          0.85604989	         -0.00321576	        -18.64815218	         -2.04464642	          7.79603281	         32.41551192	          3.04004703	         -2.78277977	         -6.52466992	        -15.73215441	          0.79324846	          6.58520457	         10.76450815	         -2.91675005	          1.31019386	          0.03727383	         21.62628968	         -0.12389391	         -2.28576877	          0.86033502	         -2.00981203	          8.92624008	        -13.45652523	         18.83505915	         -8.64014837	        -13.55678425	         10.06308249	         37.21286184	         12.11280250	         86.51662706	         86.51662706	          0.28667742	          0.10168076	          0.06740140	          0.34201388	          0.22429940	          0.11147681	          0.05000131	          0.05000023	          0.05000020	          0.08543713	          0.11650048	          0.05000137	          0.05000023	          0.05000024	          0.05000069	          0.05000080	          0.34523557	          0.05000145	          0.05000046	          0.05000579	          0.05000294	          0.05000127	          0.42085342	          0.65150553	          0.05000024	          0.05000153	          0.05003205	          0.24802960	          0.05009260	          0.05055579	          0.05022190	          0.33882937	          0.45834296	          0.31121097	          0.28774322	          0.32021033	          0.40637734	          0.05000002	          0.07679131	          0.17712507	          0.05000020	          0.05000004	          0.05000014	          0.05000001	          0.05000001	          0.05000001	          0.05000022	          0.05000030	          0.05921515	          0.05000028	          0.05000033	          0.05000068	          0.05238111	          0.05921648	          0.31157810	          0.05000659	          0.05000193	          0.11445358	          0.16744702	          0.14883996	          0.15066342	          0.11858702	          0.05000519	          0.05003811	          0.07074831	          0.05921569	          0.05921625	          0.09510502	          0.05954962	          0.06162823	          0.19673552	          0.05000042	          0.05000112	          0.05000212	          0.08426869	          0.09785383	          0.07462057	          0.05000011	          0.05000042	          0.05000004	          0.05921600	          0.05921640	          0.05921631	          0.47528334	          0.39800644	          0.24465797	          0.07163175	          0.52795208	          0.21094700	          0.07138461	          0.10284704	          0.10782322	
          1.11698822	         -2.92173016	         -2.53119020	          6.21384272	          1.39916218	          0.85494120	         -0.00298772	        -18.45178642	         -2.37104096	          7.60399943	         31.86428645	          3.45777414	         -2.61278760	         -8.61689721	        -15.42275613	         -0.08116367	          6.14642385	         11.85784818	         -3.42716140	          1.25461229	          0.04044253	         22.76138831	         -0.10485591	         -2.08144133	          1.10008924	         -2.10746081	          8.73075988	        -13.47470378	         18.98131589	         -9.80767998	        -13.55045571	          9.89269638	         38.48896663	         12.06041239	         86.51662706	         86.51662706	          0.24206061	          0.08585573	          0.05691146	          0.28878478	          0.18939069	          0.09412719	          0.05000131	          0.05000023	          0.05000019	          0.07214017	          0.09836916	          0.12166407	          0.12696996	          0.05002686	          0.05000412	          0.05000072	          0.29150517	          0.11650179	          0.05000767	          0.05000257	          0.05000145	          0.05000112	          0.35535416	          0.60078219	          0.05000067	          0.05000096	          0.05000021	          0.20942764	          0.12938379	          0.11066517	          0.05140060	          0.28609578	          0.38700892	          0.26277576	          0.24539516	          0.27037523	          0.34313141	          0.05000002	          0.06483999	          0.15534748	          0.05000010	          0.05000003	          0.05000012	          0.05000042	          0.05000078	          0.05000022	          0.05921604	          0.05921609	          0.05000013	          0.05921617	          0.05921615	          0.05921561	          0.05000126	          0.05000055	          0.28949662	          0.05000015	          0.05000040	          0.11630375	          0.25110172	          0.12567573	          0.12728266	          0.13452028	          0.05000015	          0.07010822	          0.05973796	          0.05000032	          0.05000029	          0.16211184	          0.05921616	          0.05203689	          0.32187169	          0.19972353	          0.14084828	          0.06234665	          0.20123886	          0.19555188	          0.17096054	          0.05000004	          0.05000005	          0.05000007	          0.05000001	          0.05000033	          0.05000025	          0.63479126	          0.36546044	          0.20658092	          0.41287796	          0.60034099	          0.33152636	          0.06027469	          0.08684048	          0.09104219	
          1.12804751	         -2.90964410	         -2.63364469	          6.46719372	          1.41623993	          0.85379578	         -0.00275611	        -18.14406990	         -2.68045327	          7.40465950	         31.18285547	          3.84632364	         -2.37614400	        -10.91042293	        -15.66277957	         -1.10745549	          5.52365021	         12.90498217	         -3.93394686	          1.17107614	          0.03538217	         23.75271843	         -0.07253500	         -1.85217329	          1.34406229	         -2.19523658	          8.42997654	        -13.49861071	         19.04025986	        -10.99217457	        -13.54659405	          9.74846201	         39.75082828	         12.05881894	         86.51662706	         86.51662706	          0.20438765	          0.07249362	          0.05909293	          0.24383997	          0.15991499	          0.07947778	          0.05000287	          0.05000035	          0.05000062	          0.06091268	          0.08305967	          0.21252060	          0.23617132	          0.05922685	          0.05921681	          0.05921648	          0.24613705	          0.09837277	          0.05000165	          0.05001139	          0.05001976	          0.05921552	          0.30004879	          0.54926133	          0.05921595	          0.05921573	          0.05000129	          0.17683347	          0.13797042	          0.13797066	          0.13797064	          0.24156936	          0.32677693	          0.22187875	          0.20720323	          0.22829565	          0.28972839	          0.05000001	          0.05474872	          0.14900584	          0.05000007	          0.05000003	          0.05000009	          0.06727072	          0.05921609	          0.05000010	          0.05000002	          0.05000012	          0.13649288	          0.05000012	          0.05000012	          0.05000014	          0.05000008	          0.05000019	          0.24444095	          0.05000012	          0.05000183	          0.09820299	          0.21202177	          0.32887909	          0.22861321	          0.14276738	          0.05000093	          0.05920092	          0.07542238	          0.10790980	          0.11562977	          0.13688185	          0.05000023	          0.05001770	          0.40679571	          0.16863968	          0.11892746	          0.05921635	          0.20475530	          0.22130027	          0.18194010	          0.05000029	          0.05000355	          0.05000002	          0.05921609	          0.07013157	          0.07013082	          0.53953941	          0.38208724	          0.23778593	          0.34861996	          0.57371652	          0.27992944	          0.05089387	          0.07332509	          0.07687288	
          1.13910680	         -2.89360803	         -2.73406226	          6.68702611	          1.43351570	          0.85262579	         -0.00253126	        -17.73114457	         -2.96919417	          7.19095113	         30.33018948	          4.16833582	         -2.09836545	        -13.36685999	        -16.13309850	         -2.30807341	          5.08584893	         13.87021344	         -4.47353792	          1.06307254	         -0.02105809	         24.51492535	         -0.19758149	         -1.60914181	          1.58946652	         -2.27222382	          8.04542199	        -13.52468879	         19.02097380	        -12.15616065	        -13.54753832	          9.66269730	         40.98299603	         12.07177853	         86.51662706	         86.51662706	          0.27911707	          0.06121112	          0.05000003	          0.33592978	          0.13502675	          0.06710833	          0.05000275	          0.05000016	          0.05000010	          0.05143266	          0.07013339	          0.17944521	          0.19941504	          0.05000922	          0.05000093	          0.05000051	          0.26864269	          0.08306555	          0.05000060	          0.05000069	          0.05000039	          0.05000023	          0.25335090	          0.50634304	          0.05000005	          0.05000027	          0.05000010	          0.14931206	          0.11649748	          0.11649768	          0.11649766	          0.20397279	          0.27591912	          0.18734672	          0.17495525	          0.19276504	          0.24463669	          0.05000646	          0.10751416	          0.16741468	          0.05000030	          0.14966029	          0.05000085	          0.08220487	          0.05000002	          0.05000005	          0.27758285	          0.29188880	          0.37271010	          0.36152193	          0.22144040	          0.18570988	          0.07485304	          0.08631854	          0.20639750	          0.07282364	          0.05000370	          0.08291926	          0.17902390	          0.27769424	          0.19303328	          0.15677671	          0.05000026	          0.05000255	          0.06368525	          0.22594363	          0.18182650	          0.13332537	          0.05000028	          0.05000015	          0.34348429	          0.14239366	          0.22754236	          0.05000027	          0.17288849	          0.18708689	          0.15362420	          0.05000065	          0.05000048	          0.05184385	          0.05000004	          0.05921677	          0.05921615	          0.60192448	          0.41053201	          0.20204170	          0.62505849	          0.64873064	          0.31811469	          0.07206632	          0.08305910	          0.06490880	
